<svg t="1669102648801" class="icon" viewBox="0 0 1024 1024" version="1.1" xmlns="http://www.w3.org/2000/svg" p-id="8136" width="300" height="300"><path d="M694.918 373a8 8 0 0 1 10.928 2.928l24 41.57a8 8 0 0 1-2.928 10.928L544 534.033V744a8 8 0 0 1-8 8h-48a8 8 0 0 1-8-8V536.43L292.928 428.427A8 8 0 0 1 290 417.497l24-41.569A8 8 0 0 1 324.928 373l184.995 106.807z" fill="#44D7B6" p-id="8137"></path><path d="M157.993 298.14l26.535-15.336L479.425 112.35l24.568-14.201a16 16 0 0 1 16.014 0l29.15 16.849 280.837 162.326 36.013 20.816A16 16 0 0 1 874 311.993v400.014a16 16 0 0 1-7.993 13.852l-32.186 18.604-287.012 165.895-26.802 15.492a16 16 0 0 1-16.014 0l-22.186-12.824-294.9-170.454-28.914-16.713A16 16 0 0 1 150 712.007V311.993a16 16 0 0 1 7.993-13.852zM802 344.808l-290-167.19-290 167.19V679.19l290 167.19 290-167.19V344.807z" fill="#1C6EFF" p-id="8138"></path></svg>